<svg width="256" height="221" xmlns="http://www.w3.org/2000/svg" preserveAspectRatio="xMidYMid" version="1.1">
 <defs>
  <linearGradient id="svg_6" y2="78.2008538%" x2="79.6388325%" y1="12.0393928%" x1="12.9593594%">
   <stop offset="0%" stop-color="#387EB8"/>
   <stop offset="100%" stop-color="#366994"/>
  </linearGradient>
  <linearGradient id="svg_5" y2="88.4290372%" x2="90.7415328%" y1="20.5791813%" x1="19.127525%">
   <stop offset="0%" stop-color="#FFE052"/>
   <stop offset="100%" stop-color="#FFC331"/>
  </linearGradient>
 </defs>
 <g>
  <title>Layer 1</title>
  <g id="svg_1">
   <path id="svg_2" fill="#41B883" d="m168.85946,100.77501l27.6,0l-69,119.02499l-69,-119.02499l27.255,0l25.53,0l16.215,27.6l15.87,-27.6l25.53,0z"/>
   <path id="svg_3" fill="#41B883" d="m58.45946,100.77501l69,119.02499l69,-119.02499l-27.6,0l-41.4,71.415l-41.745,-71.415l-27.255,0z"/>
   <path id="svg_4" fill="#35495E" d="m85.71446,100.77501l41.745,71.76l41.4,-71.76l-25.53,0l-15.87,27.6l-16.215,-27.6l-25.53,0z"/>
  </g>
  <g id="svg_7">
   <g id="svg_8">
    <path fill="url(#svg_6)" d="m126.95848,13.02378c-28.7406,0 -26.94586,12.46365 -26.94586,12.46365l0.03203,12.91222l27.42645,0l0,3.87687l-38.32014,0c0,0 -18.3911,-2.08572 -18.3911,26.91381c0,28.99952 16.05217,27.97113 16.05217,27.97113l9.58003,0l0,-13.45691c0,0 -0.51639,-16.05217 15.79585,-16.05217l27.20218,0c0,0 15.28321,0.24705 15.28321,-14.77056l0,-24.83119c0,0 2.32041,-15.02688 -27.71481,-15.02688l0,0l0,0l0,0.00001l0,0.00002zm-15.12299,8.68291c2.72873,0 4.9342,2.20546 4.9342,4.9342c0,2.72873 -2.20546,4.9342 -4.9342,4.9342c-2.72873,0 -4.9342,-2.20547 -4.9342,-4.9342c0,-2.72873 2.20547,-4.9342 4.9342,-4.9342l0,0l0,0z" id="svg_9"/>
    <path fill="url(#svg_5)" d="m127.77471,125.64766c28.7406,0 26.94586,-12.46366 26.94586,-12.46366l-0.03205,-12.91221l-27.42645,0l0,-3.87687l38.32014,0c0,0 18.3911,2.08572 18.3911,-26.91382c0.00001,-28.99952 -16.05217,-27.97113 -16.05217,-27.97113l-9.58003,0l0,13.45691c0,0 0.51639,16.05217 -15.79585,16.05217l-27.20218,0c0,0 -15.28321,-0.24705 -15.28321,14.77057l0,24.83119c0,0 -2.32041,15.02688 27.71481,15.02688l0,0l0,0l0.00001,-0.00001l0.00001,-0.00002zm15.12299,-8.68291c-2.72873,0 -4.9342,-2.20547 -4.9342,-4.9342c0,-2.72873 2.20546,-4.9342 4.9342,-4.9342c2.72873,0 4.9342,2.20546 4.9342,4.9342c0.00001,2.72873 -2.20547,4.9342 -4.9342,4.9342l0,0l0,0z" id="svg_10"/>
   </g>
  </g>
 </g>
</svg>